<?xml version="1.0" encoding="UTF-8" standalone="no"?><!DOCTYPE svg PUBLIC "-//W3C//DTD SVG 1.1//EN" "http://www.w3.org/Graphics/SVG/1.1/DTD/svg11.dtd"><svg width="100%" height="100%" viewBox="0 0 1417 1167" version="1.1" xmlns="http://www.w3.org/2000/svg" xmlns:xlink="http://www.w3.org/1999/xlink" xml:space="preserve" xmlns:serif="http://www.serif.com/" style="fill-rule:evenodd;clip-rule:evenodd;stroke-linecap:round;stroke-linejoin:round;stroke-miterlimit:1.5;"><g><circle cx="583.383" cy="583.383" r="558.383" style="fill:none;stroke:#fff;stroke-width:50px;"/><path d="M1391.74,564.201c0,-13.868 -5.509,-27.168 -15.315,-36.974c-9.806,-9.806 -23.106,-15.315 -36.974,-15.315c-68.09,-0 -178.514,-0 -178.514,-0l0,142.942l178.514,-0c13.868,-0 27.168,-5.509 36.974,-15.315c9.806,-9.807 15.315,-23.107 15.315,-36.975c0,-12.505 0,-25.857 0,-38.363Z" style="fill:#fff;stroke:#fff;stroke-width:50px;"/><g><path d="M582.406,357.006l-312.997,312.997l312.997,312.997l312.997,-312.997l-312.997,-312.997Z" style="fill:#fff;"/><circle cx="734.52" cy="519.518" r="220.863" style="fill:#fff;"/><g><path d="M584.36,353.653l312.997,312.998l-312.997,312.997l-312.998,-312.997l312.998,-312.998Z" style="fill:#fff;"/><circle cx="432.245" cy="516.166" r="220.863" style="fill:#fff;"/></g></g></g></svg>